<!--?xml version="1.0" encoding="utf-8"?-->
<!-- Generator: Adobe Illustrator 27.4.1, SVG Export Plug-In . SVG Version: 6.00 Build 0)  -->
<svg xml:space="preserve" style="enable-background:new 0 0 100 100;" viewBox="0 0 100 100" y="0px" x="0px" xmlns:xlink="http://www.w3.org/1999/xlink" xmlns="http://www.w3.org/2000/svg" id="Layer_1" version="1.1">
<style type="text/css">
	.st0{fill:#0078C0;}
	.st1{fill:#EE1441;}
	.st2{fill:#FFD272;}
	.st3{fill:#FFD274;}
	.st4{fill:#FFFFFF;}
	.st5{fill:url(#);}
	.st6{fill:none;stroke:#FFFFFF;stroke-width:1.0485;stroke-miterlimit:10;}
</style>
<g>
	<rect height="100" width="100" class="st0" y="0" x="0"></rect>
</g>
<g>
	<g>
		<path d="M58.05,100h4.89c5.98-1.79,11.96-3.56,17.93-5.38C73.25,96.38,65.65,98.18,58.05,100z" class="st4"></path>
	</g>
	<g>
		<path d="M33.23,100H38c14.33-5.74,28.63-11.5,42.86-17.34C64.99,88.35,49.11,94.15,33.23,100z" class="st4"></path>
	</g>
	<g>
		<path d="M19.12,100h4.5c19.17-10.02,38.26-20.12,57.24-30.29C60.27,79.67,39.68,89.77,19.12,100z" class="st4"></path>
	</g>
	<g>
		<path d="M10.04,100h3.89C36.36,85.19,58.7,70.28,80.86,55.29C57.23,70,33.61,84.93,10.04,100z" class="st4"></path>
	</g>
	<g>
		<path d="M3.39,100h3.63c24.79-20.31,49.43-40.73,73.84-61.25C54.98,58.94,29.14,79.38,3.39,100z" class="st4"></path>
	</g>
	<g>
		<polygon points="80.86,19.14 80.86,19.14 80.86,19.14" class="st4"></polygon>
		<path d="M80.86,19.14C53.81,45.26,26.83,71.68,0,98.3l0,1.7h1.7C28.32,73.17,54.74,46.19,80.86,19.14L80.86,19.14z" class="st4"></path>
	</g>
	<g>
		<polygon points="61.25,19.14 61.25,19.14 61.25,19.14" class="st4"></polygon>
		<path d="M61.25,19.14C40.73,43.55,20.31,68.19,0,92.98l0,3.63C20.62,70.86,41.06,45.02,61.25,19.14L61.25,19.14z" class="st4"></path>
	</g>
	<g>
		<polygon points="44.71,19.14 44.71,19.14 44.71,19.14" class="st4"></polygon>
		<path d="M44.71,19.14C29.72,41.3,14.81,63.64,0,86.07l0,3.89C15.07,66.39,29.99,42.77,44.71,19.14L44.71,19.14z" class="st4"></path>
	</g>
	<g>
		<polygon points="30.29,19.14 30.29,19.14 30.29,19.14" class="st4"></polygon>
		<path d="M30.29,19.14C20.12,38.12,10.02,57.21,0,76.38l0,4.5C10.23,60.32,20.33,39.73,30.29,19.14L30.29,19.14z" class="st4"></path>
	</g>
	<g>
		<polygon points="17.34,19.14 17.34,19.14 17.34,19.14" class="st4"></polygon>
		<path d="M17.34,19.14C11.5,33.37,5.74,47.68,0,62l0,4.77C5.85,50.89,11.65,35.01,17.34,19.14L17.34,19.14z" class="st4"></path>
	</g>
	<g>
		<polygon points="5.38,19.14 5.38,19.14 5.38,19.14" class="st4"></polygon>
		<path d="M5.38,19.14C3.57,25.17,1.79,31.23,0,37.28l0,4.34C1.81,34.12,3.62,26.63,5.38,19.14L5.38,19.14z" class="st4"></path>
	</g>
</g>
</svg>
